<?xml version="1.0" standalone="no"?><!DOCTYPE svg PUBLIC "-//W3C//DTD SVG 1.1//EN" "http://www.w3.org/Graphics/SVG/1.1/DTD/svg11.dtd"><svg t="1547879973661" class="icon" style="" viewBox="0 0 1024 1024" version="1.1" xmlns="http://www.w3.org/2000/svg" p-id="1583" xmlns:xlink="http://www.w3.org/1999/xlink" width="200" height="200"><defs><style type="text/css"></style></defs><path d="M-5365.15942747 621.2560357m-2729.49482233 0a2729.49482234 2729.49482234 0 1 0 5458.98964451 0 2729.49482234 2729.49482234 0 1 0-5458.98964451 0Z" fill="#ffffff" p-id="1584"></path><path d="M898.67834996 175.30520694v678.71190927c0 51.14058369-41.42155873 92.56214241-92.56214245 92.56214245h-592.39771145c-51.14058369 0-92.56214241-41.42155873-92.56214245-92.56214245V175.30520694c0-51.14058369 41.42155873-92.56214241 92.56214245-92.56214242h592.39771145c50.90917834 0 92.56214241 41.65296407 92.56214245 92.56214242z" fill="#ffffff" p-id="1585"></path><path d="M779.36311096 430.08220272l-47.7428675-47.74286746c-18.53546618-18.53546618-48.30454819-18.53546618-66.84001441 0l-47.7428674 47.74286746c-8.70605233 8.70605233-23.5905933 2.52756358-23.59059327-9.82941393V86.61439769h209.78777621v333.35755078c-0.28084047 12.63781785-15.16538144 18.81630663-23.87143363 10.11025425z" fill="#e6e6e6" p-id="1586"></path></svg>