<?xml version="1.0" standalone="no"?><!DOCTYPE svg PUBLIC "-//W3C//DTD SVG 1.1//EN" "http://www.w3.org/Graphics/SVG/1.1/DTD/svg11.dtd"><svg t="1547879985178" class="icon" style="" viewBox="0 0 1024 1024" version="1.1" xmlns="http://www.w3.org/2000/svg" p-id="1823" xmlns:xlink="http://www.w3.org/1999/xlink" width="200" height="200"><defs><style type="text/css"></style></defs><path d="M511.3 63.9c-247.4 0-448 200.7-448 448.2s200.6 448.2 448 448.2 448-200.7 448-448.2c0-247.6-200.5-448.2-448-448.2zM725 323.6l-73.8 237.3c-5.6 22.6-16.7 44.2-33.6 62.7-16.9 18.5-37.6 31.6-59.8 39.1l-246.7 77.5c-7.9 2.5-15.3-4.9-12.9-12.9l73.3-235.6c5.6-22.6 16.7-44.2 33.6-62.7 16.9-18.5 37.6-31.6 59.8-39.1l248.4-78c7.2-2.3 13.9 4.5 11.7 11.7z" fill="#ffffff" p-id="1824"></path><path d="M713.3 311.9l-248.4 78c-22.2 7.5-42.9 20.6-59.8 39.1-16.8 18.4-28 40-33.6 62.7l-73.3 235.6c-2.5 7.9 5 15.3 12.9 12.9l246.7-77.5c22.2-7.5 42.9-20.6 59.8-39.1 16.8-18.4 28-40 33.6-62.7L725 323.6c2.2-7.2-4.5-14-11.7-11.7zM556.2 567.4c-22.7 24.8-61.1 26.5-85.9 3.8-24.8-22.7-26.5-61.1-3.8-85.9 22.7-24.8 61.1-26.5 85.9-3.8 24.7 22.6 26.5 61.1 3.8 85.9z" fill="#e6e6e6" p-id="1825"></path><path d="M466.5 485.2c-22.7 24.8-21 63.3 3.8 85.9 24.8 22.7 63.2 21 85.9-3.8 22.7-24.8 21-63.3-3.8-85.9-24.8-22.7-63.3-20.9-85.9 3.8z" fill="#ffffff" p-id="1826"></path></svg>