<?xml version="1.0" standalone="no"?><!DOCTYPE svg PUBLIC "-//W3C//DTD SVG 1.1//EN" "http://www.w3.org/Graphics/SVG/1.1/DTD/svg11.dtd"><svg t="1547879965527" class="icon" style="" viewBox="0 0 1024 1024" version="1.1" xmlns="http://www.w3.org/2000/svg" p-id="1344" xmlns:xlink="http://www.w3.org/1999/xlink" width="200" height="200"><defs><style type="text/css"></style></defs><path d="M711.99999969 838.66666625l0-653.3333325C711.99999969 122.84 762.84000031 72.00000031 825.33333312 72.00000031S938.66666656 122.84 938.66666656 185.33333375l0 653.3333325c0 62.49333375-50.83999969 113.33333344-113.33333344 113.33333344S711.99999969 901.16 711.99999969 838.66666625z m173.33333344-653.33333249C885.33333312 152.25333312 858.41333375 125.33333375 825.33333312 125.33333375S765.33333312 152.25333312 765.33333312 185.33333375l1e-8 653.3333325c0 33.07999969 26.92000031 60 59.99999999 60S885.33333312 871.74666688 885.33333312 838.66666624l0-653.33333248zM85.33333343 732.00000031l1e-8-546.66666656C85.33333344 122.84 136.17333312 72.00000031 198.66666688 72.00000031S312.00000031 122.84 312.00000031 185.33333375l0 546.66666656c0 62.49333375-50.83999969 113.33333344-113.33333344 113.33333345S85.33333343 794.49333312 85.33333343 732.00000031z m173.33333345-546.66666656C258.66666688 152.25333312 231.74666657 125.33333375 198.66666688 125.33333375S138.66666688 152.25333312 138.66666688 185.33333376l0 546.66666655c0 33.07999969 26.92000031 60 60 60S258.66666688 765.08 258.66666688 732.00000031l-1e-8-546.66666656zM392 572l0-386.66666625C392 122.84 442.83999969 72.00000031 505.33333344 72.00000031S618.66666688 122.84 618.66666688 185.33333375l0 386.66666625c0 62.49333375-50.83999969 113.33333344-113.33333344 113.33333344S392 634.49333375 392 572z m173.33333345-386.66666625C565.33333344 152.25333312 538.41333313 125.33333375 505.33333345 125.33333375S445.33333344 152.25333312 445.33333344 185.33333376l0 386.66666624c0 33.07999969 26.92000031 60 60 60S565.33333344 605.07999969 565.33333344 572l1e-8-386.66666625z" fill="#ffffff" p-id="1345"></path></svg>