<?xml version="1.0" standalone="no"?><!DOCTYPE svg PUBLIC "-//W3C//DTD SVG 1.1//EN" "http://www.w3.org/Graphics/SVG/1.1/DTD/svg11.dtd"><svg t="1547879969597" class="icon" style="" viewBox="0 0 1024 1024" version="1.1" xmlns="http://www.w3.org/2000/svg" p-id="1462" xmlns:xlink="http://www.w3.org/1999/xlink" width="200" height="200"><defs><style type="text/css"></style></defs><path d="M512 59.392c-249.856 0-452.608 202.752-452.608 452.608 0 249.856 202.752 452.608 452.608 452.608s452.608-202.752 452.608-452.608c0-249.856-202.752-452.608-452.608-452.608z" fill="#ffffff" p-id="1463"></path><path d="M640 509.952L640 78.848c-20.47999999-6.656-44.544-10.24-65.024-13.824l0 444.928L640 509.952z" fill="#e6e6e6" p-id="1464"></path><path d="M512 512m-128 0a128 128 0 1 0 256 0 128 128 0 1 0-256 0Z" fill="#e6e6e6" p-id="1465"></path><path d="M-501.41866652 256c-80.896 37.37599999-146.944 102.912-184.32 184.32L-751.27466652 440.32c46.592-112.64 137.216-202.752 249.856-249.856L-501.41866652 256zM-358.05866652 833.536L-358.05866652 768c77.82399999-40.448 143.36-105.984 184.32-184.32l65.536 0c-47.104 112.64-137.216 202.752-249.856 249.856z" fill="#928ffa" p-id="1466"></path></svg>