<?xml version="1.0" standalone="no"?><!DOCTYPE svg PUBLIC "-//W3C//DTD SVG 1.1//EN" "http://www.w3.org/Graphics/SVG/1.1/DTD/svg11.dtd"><svg t="1547879960558" class="icon" style="" viewBox="0 0 1024 1024" version="1.1" xmlns="http://www.w3.org/2000/svg" p-id="1222" xmlns:xlink="http://www.w3.org/1999/xlink" width="200" height="200"><defs><style type="text/css"></style></defs><path d="M768 465.066667c-8.533333 68.266667-38.4 132.266667-89.6 183.466666-59.733333 64-145.066667 98.133333-230.4 98.133334-166.4 0-307.2-128-320-294.4 4.266667-4.266667 8.533333-4.266667 12.8-8.533334 8.533333-4.266667 21.333333-12.8 29.866667-12.8 76.8-34.133333 179.2-38.4 290.133333 25.6 110.933333 64 213.333333 25.6 268.8 0 4.266667-4.266667 12.8-4.266667 17.066667-8.533333 12.8-8.533333 21.333333-17.066667 21.333333-17.066667v34.133334zM802.133333 746.666667l-46.933333 21.333333-68.266667-72.533333 29.866667-34.133334z" fill="#e6e6e6" p-id="1223"></path><path d="M448 102.4c-179.2 0-324.266667 145.066667-324.266667 324.266667v25.6c12.8 162.133333 153.6 294.4 320 294.4 89.6 0 170.666667-34.133333 230.4-98.133334 51.2-51.2 81.066667-115.2 89.6-183.466666 4.266667-12.8 4.266667-25.6 4.266667-42.666667 4.266667-174.933333-140.8-320-320-320z m273.066667 375.466667c-8.533333 51.2-34.133333 102.4-72.533334 140.8-55.466667 55.466667-123.733333 85.333333-200.533333 85.333333-145.066667 0-264.533333-110.933333-277.333333-251.733333v-21.333334-8.533333-17.066667c8.533333-145.066667 128-260.266667 277.333333-260.266666 153.6 0 281.6 123.733333 281.6 281.6v29.866666c-4.266667 8.533333-4.266667 17.066667-8.533333 21.333334z" fill="#ffffff" p-id="1224"></path><path d="M729.6 422.4c-4.266667 8.533333-153.6 102.4-277.333333 4.266667-102.4-81.066667-221.866667-46.933333-285.866667-21.333334 12.8-145.066667 132.266667-260.266667 281.6-260.266666 153.6 0 281.6 123.733333 281.6 277.333333z" fill="#FFFFFF" p-id="1225"></path><path d="M900.266667 840.533333l-34.133334 34.133334-179.2-179.2 29.866667-34.133334 85.333333 85.333334z" fill="#ffffff" p-id="1226"></path><path d="M750.933333 465.066667s-12.8 8.533333-29.866666 17.066666c-29.866667 12.8-85.333333 34.133333-149.333334 34.133334-46.933333 0-102.4-12.8-149.333333-51.2C328.533333 384 213.333333 430.933333 170.666667 452.266667c-12.8 4.266667-21.333333 8.533333-21.333334 12.8l-12.8-17.066667-12.8-17.066667c4.266667 0 17.066667-12.8 42.666667-21.333333 64-25.6 183.466667-59.733333 281.6 21.333333 119.466667 98.133333 268.8 4.266667 277.333333 0l12.8 21.333334 12.8 12.8z" fill="#ffffff" p-id="1227"></path></svg>